Coordinates
version=1
nRows=17
nColumns=40
inDegrees=yes

Units are S.I. units (second, meters, Newtons, ...)
Angles are in degrees.

endheader
time	pelvis_tilt	pelvis_list	pelvis_rotation	pelvis_tx	pelvis_ty	pelvis_tz	hip_flexion_r	hip_adduction_r	hip_rotation_r	knee_angle_r	knee_angle_r_beta	ankle_angle_r	subtalar_angle_r	mtp_angle_r	hip_flexion_l	hip_adduction_l	hip_rotation_l	knee_angle_l	knee_angle_l_beta	ankle_angle_l	subtalar_angle_l	mtp_angle_l	lumbar_extension	lumbar_bending	lumbar_rotation	arm_flex_r	arm_add_r	arm_rot_r	elbow_flex_r	pro_sup_r	wrist_flex_r	wrist_dev_r	arm_flex_l	arm_add_l	arm_rot_l	elbow_flex_l	pro_sup_l	wrist_flex_l	wrist_dev_l
      5.28500019	    -10.23647576	     -5.23359274	      4.92407318	     -0.64251792	      0.95091906	      0.27840987	     37.99195454	      2.85775686	    -12.79600062	     34.25418429	     34.25418429	      6.76779672	      0.00000000	      0.00000000	     16.79331183	    -10.60835375	      7.31952677	    109.43408757	    109.43408757	     -5.27184176	      0.00000000	      0.00000000	    -24.14656218	      9.84827498	     -9.15854514	     -9.69999980	    -15.03301988	    -14.00682582	     97.57526824	     42.28211219	      0.00000000	      0.00000000	     -5.93241614	    -16.56269451	    -10.85058479	     85.63301513	     35.32392205	      0.00000000	      0.00000000
      5.29000019	     -9.76348660	     -5.41487535	      4.05951256	     -0.61119013	      0.95083706	      0.27971192	     36.36858496	      3.75756504	    -12.04347026	     36.26965659	     36.26965659	      9.85990026	      0.00000000	      0.00000000	     19.09982445	    -10.85737303	      7.44264000	    111.68980899	    111.68980899	     -4.17455485	      0.00000000	      0.00000000	    -24.76477037	      9.58505159	     -8.22652741	     -5.81669088	    -14.99067081	    -12.98732133	     98.68737400	     42.37087250	      0.00000000	      0.00000000	     -7.55874352	    -15.80490185	    -11.50624663	     82.68909444	     35.09832719	      0.00000000	      0.00000000
      5.29500019	     -9.24281904	     -5.50894271	      3.13747000	     -0.57976889	      0.95109111	      0.28104790	     34.49809236	      4.60704453	    -11.09502809	     37.95245507	     37.95245507	     12.59805164	      0.00000000	      0.00000000	     21.37530436	    -11.03635867	      7.50155611	    113.56945582	    113.56945582	     -3.15101881	      0.00000000	      0.00000000	    -25.40820262	      9.17496195	     -7.17535913	     -2.04053667	    -14.90203844	    -12.07422853	     99.92151673	     42.45883493	      0.00000000	      0.00000000	     -9.18623469	    -15.16540342	    -11.97407459	     80.05785476	     34.90290978	      0.00000000	      0.00000000
      5.30000019	     -8.71265855	     -5.50495968	      2.15383467	     -0.54823999	      0.95160334	      0.28244491	     32.42112772	      5.37252135	     -9.97009011	     39.29945521	     39.29945521	     14.97125620	      0.00000000	      0.00000000	     23.64389637	    -11.14791753	      7.46434316	    115.07144962	    115.07144962	     -2.20537753	      0.00000000	      0.00000000	    -26.01154277	      8.59792120	     -6.02095907	      1.58357366	    -14.80060709	    -11.21970207	    101.39455731	     41.08341765	      0.00000000	      0.00000000	    -10.85656627	    -14.63945447	    -12.26499500	     77.74596230	     35.15375169	      0.00000000	      0.00000000
      5.30500019	     -8.20705669	     -5.39956089	      1.11455493	     -0.51659588	      0.95228494	      0.28392148	     30.18554873	      6.01747997	     -8.70060980	     40.32967192	     40.32967192	     16.97742081	      0.00000000	      0.00000000	     25.92774825	    -11.20235527	      7.31505386	    116.20120371	    116.20120371	     -1.33936163	      0.00000000	      0.00000000	    -26.51409612	      7.85154653	     -4.78307553	      5.04934280	    -14.70521556	    -10.52224686	    102.87494284	     41.21054575	      0.00000000	      0.00000000	    -12.60291630	    -14.22969606	    -12.37137016	     75.83920368	     35.02290738	      0.00000000	      0.00000000
      5.31000019	     -7.75119708	     -5.20015966	      0.03682282	     -0.48483281	      0.95304770	      0.28548379	     27.83960197	      6.51308291	     -7.32889996	     41.07478802	     41.07478802	     18.61450783	      0.00000000	      0.00000000	     28.24336699	    -11.21827506	      7.05701870	    116.97191167	    116.97191167	     -0.55001643	      0.00000000	      0.00000000	    -26.86757222	      6.95466652	     -3.49073722	      8.35973417	    -14.63588265	    -10.02306303	    104.22654735	     44.43352039	      0.00000000	      0.00000000	    -14.44429663	    -13.93756399	    -12.32644892	     74.24848374	     35.88066745	      0.00000000	      0.00000000
      5.31500019	     -7.36115737	     -4.92461805	     -1.05322207	     -0.45294832	      0.95381153	      0.28712495	     25.42786604	      6.84563881	     -5.90338817	     41.56912985	     41.56912985	     19.87728214	      0.00000000	      0.00000000	     30.60088765	    -11.21933493	      6.71200519	    117.40394182	    117.40394182	      0.16943832	      0.00000000	      0.00000000	    -27.03766941	      5.94521150	     -2.18268691	     11.48455640	    -14.63072740	     -9.47236221	    105.88991398	     44.58851134	      0.00000000	      0.00000000	    -16.40830734	    -13.76409033	    -12.13234982	     73.11800171	     35.82266246	      0.00000000	      0.00000000
      5.32000019	     -7.04609322	     -4.59696745	     -2.12524219	     -0.42093913	      0.95451027	      0.28882782	     22.98969947	      7.01762549	     -4.47185725	     41.84442457	     41.84442457	     20.75512246	      0.00000000	      0.00000000	     33.00507995	    -11.22838930	      6.31440551	    117.52235595	    117.52235595	      0.82846115	      0.00000000	      0.00000000	    -27.01452774	      4.86925479	     -0.87098033	     14.51294898	    -14.65427721	     -9.38541812	    106.95899672	     53.91917040	      0.00000000	      0.00000000	    -18.47881185	    -13.71431214	    -11.83687512	     72.21824521	     37.76298732	      0.00000000	      0.00000000
      5.32500019	     -6.81195960	     -4.24194904	     -3.15058835	     -0.38880065	      0.95509330	      0.29057214	     20.56027368	      7.04433868	     -3.07402480	     41.92911619	     41.92911619	     21.23339050	      0.00000000	      0.00000000	     35.45758052	    -11.26330630	      5.90241075	    117.35285546	    117.35285546	      1.43487119	      0.00000000	      0.00000000	    -26.78859087	      3.77552343	      0.39531132	     17.37741553	    -14.75995487	     -9.14326244	    108.42676786	     58.35117216	      0.00000000	      0.00000000	    -20.67879538	    -13.77635004	    -11.47704301	     71.65934381	     39.99111829	      0.00000000	      0.00000000
      5.33000019	     -6.66170757	     -3.88242445	     -4.10259838	     -0.35652298	      0.95553147	      0.29233255	     18.16744835	      6.94902074	     -1.73993634	     41.84693397	     41.84693397	     21.29475984	      0.00000000	      0.00000000	     37.95664209	    -11.33390735	      5.51422718	    116.91812860	    116.91812860	      1.99313967	      0.00000000	      0.00000000	    -26.37040436	      2.70675658	      1.60223144	     20.13755878	    -14.91619384	     -9.04398777	    109.83199294	     64.33184486	      0.00000000	      0.00000000	    -23.00081305	    -13.94415697	    -11.06631811	     71.46261868	     41.83179181	      0.00000000	      0.00000000
      5.33500019	     -6.59486168	     -3.53576582	     -4.95825446	     -0.32408797	      0.95581998	      0.29408027	     15.83003675	      6.75672470	     -0.48806378	     41.61727917	     41.61727917	     20.92067759	      0.00000000	      0.00000000	     40.49472021	    -11.43974022	      5.18108847	    116.23435494	    116.23435494	      2.50410689	      0.00000000	      0.00000000	    -25.76881526	      1.69960134	      2.70856252	     22.75518410	    -15.14554307	     -8.61299246	    111.57823249	     64.49806429	      0.00000000	      0.00000000	    -25.45609417	    -14.19395138	    -10.63072072	     71.69348003	     41.89909800	      0.00000000	      0.00000000
      5.34000019	     -6.60610014	     -3.21260773	     -5.69802112	     -0.29146796	      0.95597992	      0.29578244	     13.55590511	      6.48987629	      0.67197315	     41.25393514	     41.25393514	     20.09249885	      0.00000000	      0.00000000	     43.05564713	    -11.56912388	      4.92347609	    115.30951799	    115.30951799	      2.96485848	      0.00000000	      0.00000000	    -25.00907851	      0.77672387	      3.70692055	     25.28545481	    -15.40622102	     -8.19056138	    113.30309767	     64.68469943	      0.00000000	      0.00000000	    -28.00976339	    -14.50708535	    -10.23631079	     72.16532951	     42.00814894	      0.00000000	      0.00000000
      5.34500019	     -6.68432710	     -2.91513186	     -6.30800351	     -0.25862773	      0.95605523	      0.29740642	     11.34234461	      6.16480775	      1.73880209	     40.76512656	     40.76512656	     18.79561461	      0.00000000	      0.00000000	     45.61194792	    -11.70028751	      4.74601898	    114.14398959	    114.14398959	      3.36759179	      0.00000000	      0.00000000	    -24.12800425	     -0.05492941	      4.59444702	     27.81992762	    -15.63298904	     -8.40628613	    114.52217816	     74.21884481	      0.00000000	      0.00000000	    -30.54493222	    -14.84624608	    -10.28094251	     71.90412382	     54.66870366	      0.00000000	      0.00000000
      5.35000019	     -6.81340885	     -2.63704128	     -6.78170743	     -0.22553029	      0.95610470	      0.29892324	      9.17910220	      5.79020536	      2.71728454	     40.15528840	     40.15528840	     17.02353761	      0.00000000	      0.00000000	     48.12515850	    -11.80558079	      4.63510744	    112.73323172	    112.73323172	      3.70045621	      0.00000000	      0.00000000	    -23.13761811	     -0.79433564	      5.31830503	     30.18049850	    -15.92261968	     -7.87800119	    116.25452636	     73.08639200	      0.00000000	      0.00000000	    -33.20087545	    -15.19216317	    -10.29881575	     72.35894725	     59.90331810	      0.00000000	      0.00000000
      5.35500019	     -6.97360948	     -2.36632239	     -7.12156807	     -0.19214381	      0.95619394	      0.30031386	      7.05115483	      5.36905537	      3.61658627	     39.42607156	     39.42607156	     14.78228115	      0.00000000	      0.00000000	     50.54785945	    -11.85954269	      4.56140113	    111.07187506	    111.07187506	      3.95178281	      0.00000000	      0.00000000	    -22.07873208	     -1.46164764	      5.89498641	     32.43100852	    -16.22625734	     -7.20721644	    118.05435066	     70.14723319	      0.00000000	      0.00000000	    -35.90184259	    -15.52046568	    -10.46709510	     72.98210556	     64.43170854	      0.00000000	      0.00000000
      5.36000019	     -7.14519105	     -2.09002134	     -7.33688015	     -0.15844893	      0.95638377	      0.30156784	      4.94324868	      4.90210220	      4.44477543	     38.57845676	     38.57845676	     12.09725095	      0.00000000	      0.00000000	     52.83101364	    -11.84456486	      4.48870862	    109.15714566	    109.15714566	      4.11536212	      0.00000000	      0.00000000	    -20.98223475	     -2.07979438	      6.32921062	     34.55257986	    -16.54492365	     -6.37505020	    119.97034185	     64.96705673	      0.00000000	      0.00000000	    -38.63675686	    -15.80787295	    -10.76431817	     73.78638601	     67.44268780	      0.00000000	      0.00000000
      5.36500019	     -7.31194731	     -1.79804517	     -7.44246289	     -0.12444359	      0.95672186	      0.30268388	      2.84398864	      4.39176998	      5.20820776	     37.61524227	     37.61524227	      9.01599019	      0.00000000	      0.00000000	     54.93116812	    -11.75413344	      4.38202116	    106.98946246	    106.98946246	      4.19312267	      0.00000000	      0.00000000	    -19.87702089	     -2.67156983	      6.63424107	     36.54347282	    -16.86980203	     -5.48837197	    121.96422866	     58.81752202	      0.00000000	      0.00000000	    -41.36472391	    -16.02496114	    -11.30007046	     74.61379823	     70.89557598	      0.00000000	      0.00000000
